<?xml version="1.0" encoding="utf-8"?>
<!DOCTYPE svg PUBLIC "-//W3C//DTD SVG 1.1//EN" "http://www.w3.org/Graphics/SVG/1.1/DTD/svg11.dtd">
<svg version="1.1" id="Layer_1" xmlns="http://www.w3.org/2000/svg" xmlns:xlink="http://www.w3.org/1999/xlink" x="0px" y="0px"
	 width="500.0px" height="500.0px" viewBox="0 0 500 500" enable-background="new 0 0 500 500"
	 xml:space="preserve">

<g transform="translate(250 250)">
	<!-- torso (red) -->
	<polygon fill="#EF161F" points="-50,-50 50,-50 -50,50 "/>
	<polygon fill="#EF161F" points="-50,50 50,-50 50,50"/>

	<!-- head (beige) -->
	<g transform="translate(0 -100)">
		<g transform="rotate(0)">
			<g transform="scale(.5 .5)">
				<polygon fill="#F5CBA7" points="-50,-50 50,-50 -50,50 "/>
				<polygon fill="#F5CBA7" points="-50,50 50,-50 50,50"/>
			</g>
		</g>
	</g>

	<!-- left leg (black shorts, beige lower leg, black shoes) -->
	<g transform="translate(-30 90)">
		<g transform="rotate(20)">
		<g transform="scale(.5 .6)">
			<polygon fill="#000000" points="-50,-50 50,-50 -50,50 "/> <!-- Black Shorts -->
			<polygon fill="#000000" points="-50,50 50,-50 50,50"/>
		</g>
			
		<g transform="translate(0 70)">
			<g transform="scale(.2 .6)">
				<polygon fill="#F5CBA7" points="-50,-50 50,-50 -50,50 "/> <!-- Beige Leg -->
				<polygon fill="#F5CBA7" points="-50,50 50,-50 50,50"/>
			</g>
		  </g>
		</g>
		<!-- Left shoe -->
		<g transform="translate(-45 110)">
			<g transform="rotate(0)">
			<g transform="scale(.3 .2)">
				<polygon fill="#000000" points="-50,-50 50,-50 -50,50 "/> <!-- Black Shoe -->
				<polygon fill="#000000" points="-50,50 50,-50 50,50"/>
			</g>
		 </g>
		</g>
	</g>

	<!-- right leg (black shorts, beige lower leg, black shoes) -->
	<g transform="translate(30 90)">
		<g transform="rotate(-20)">
		<g transform="scale(.5 .6)">
			<polygon fill="#000000" points="-50,-50 50,-50 -50,50 "/> <!-- Black Shorts -->
			<polygon fill="#000000" points="-50,50 50,-50 50,50"/>
		</g>
		<g transform="translate(0 70)">
			<g transform="scale(.2 .6)">
				<polygon fill="#F5CBA7" points="-50,-50 50,-50 -50,50 "/> <!-- Beige Leg -->
				<polygon fill="#F5CBA7" points="-50,50 50,-50 50,50"/>
			</g>
		</g>
		</g>
		<!-- Right shoe -->
		<g transform="translate(45 110)">
			<g transform="rotate(0)">
			<g transform="scale(.3 .2)">
				<polygon fill="#000000" points="-50,-50 50,-50 -50,50 "/> <!-- Black Shoe -->
				<polygon fill="#000000" points="-50,50 50,-50 50,50"/>
			</g>
		</g>
	</g>
</g>

	<!-- left arm (red upper arm, beige lower arm) -->
	<g transform="translate(-90 -30)">
		<g transform="rotate(-20)">
		<g transform="scale(.6 .2)">
			<polygon fill="#EF161F" points="-50,-50 50,-50 -50,50 "/> <!-- Red -->
			<polygon fill="#EF161F" points="-50,50 50,-50 50,50"/>
		</g>
		</g>
		<g transform="translate(0 50)">
			<g transform="rotate(45)">
			<g transform="scale(.6 .2)">
				<polygon fill="#F5CBA7" points="-50,-50 50,-50 -50,50 "/> <!-- Beige -->
				<polygon fill="#F5CBA7" points="-50,50 50,-50 50,50"/>
			</g>
		</g>
	  </g>
	</g>

	<!-- right arm (red upper arm, beige lower arm) -->
	<g transform="translate(90 -30)">
		<g transform="rotate(20)">
		<g transform="scale(.6 .2)">
			<polygon fill="#EF161F" points="-50,-50 50,-50 -50,50 "/> <!-- Red -->
			<polygon fill="#EF161F" points="-50,50 50,-50 50,50"/>
		</g>
		</g>
		<g transform="translate(0 50)">
			<g transform="rotate(-45)">
			<g transform="scale(.6 .2)">
				<polygon fill="#F5CBA7" points="-50,-50 50,-50 -50,50 "/> <!-- Beige -->
				<polygon fill="#F5CBA7" points="-50,50 50,-50 50,50"/>
			</g>
		</g>
	  </g>
	</g>

</g>

</svg>
